<svg width="4495" height="2319" viewBox="0 0 4495 2319" fill="none" xmlns="http://www.w3.org/2000/svg">
<g clip-path="url(#clip0_65_10)">
<path d="M240.47 1172.28C243.27 1211.3 251.32 1245.99 262.91 1285.86C272.48 1321.23 282.38 1354.85 299.52 1388.31C312.89 1415.75 331.26 1440.96 345.58 1467.48C356.3 1487.4 364.22 1508.51 366.58 1530.98C370.37 1568.7 361.94 1612.53 361.36 1651.85C359.78 1733.42 350.88 1791.41 271.47 1708.64C138.87 1569.77 55.0299 1387.72 18.2399 1199.82C-33.4901 893.06 24.8999 563.47 192.23 299.63C287.61 157.28 448.07 -25.6201 636.79 2.97994C667.65 8.16994 697.74 17.5499 727.42 27.7799C756.87 38.0799 786 49.1399 813.32 63.6099C928.25 122.65 978.25 267.93 948.87 389.54C940.49 423.08 927 457.18 902.37 481.9C856.57 527.38 793.95 503.26 759.64 455.52C720.37 402.47 699.36 328.38 624.69 316.5C526.36 303.16 445.61 413.97 397.51 486.79C304.12 637.27 245.6 826.26 238.41 1004.15C237.22 1032.46 237.87 1061.67 238.56 1090.4C238.58 1117.36 238.47 1147.6 240.46 1172.12V1172.27L240.47 1172.28Z" fill="white"/>
<path d="M2892.52 1449.4C2816.45 1522.8 2643.42 1699.43 2528.88 1625.37C2446.44 1572.07 2484.51 1453.62 2504.94 1377.43C2525.02 1302.57 2611.13 1043.18 2665.96 1002.72C2699.1 978.26 2803.94 976.84 2804.51 1021.33C2804.66 1032.84 2723.32 1198.56 2710.78 1231.49C2693.42 1277.1 2630.23 1452.54 2640.03 1489.49C2662.79 1575.32 2808.43 1469.11 2844.74 1437.49C2856.56 1427.2 2894.61 1392 2900.84 1381.66C2933.7 1327.19 2961.35 1182.46 2995.13 1108.13C3009.89 1075.65 3039.43 1006.99 3069.13 990.23C3102.13 971.62 3204.93 971.98 3205.01 1021.36C3205.04 1043.61 3120.66 1193.36 3104.54 1233.58C3086.18 1279.38 3014.26 1465 3055.68 1498.11C3085.73 1522.13 3134.58 1483.75 3160.21 1465.2C3252.29 1398.54 3364.43 1266.26 3423.49 1168.81C3452.71 1120.6 3491.97 1006.32 3520.7 978.17C3577.76 922.26 3625.02 963.18 3597.65 1039.24C3558.84 1147.1 3289.56 1470.91 3196.45 1549.44C3050.99 1672.12 2886.23 1683.33 2892.53 1449.39L2892.52 1449.4Z" fill="white"/>
<path d="M3906.29 995.04C3911.61 1004.29 3906.83 1016.42 3904 1025.71C3891.56 1066.49 3839.04 1146.56 3818.41 1196.09C3792.74 1257.73 3708.42 1467.6 3764.18 1517.04C3774.09 1525.83 3784.58 1529.07 3797.84 1527.85C3890.09 1519.32 4064.24 1295.78 4108.95 1214.87C4133.95 1169.63 4178.14 1033.2 4199.84 1009.92C4227.58 980.16 4324.61 971.48 4351.39 1009.56C4369.57 1047.17 4310.42 1166.9 4297.12 1211.22C4260.37 1333.67 4192.71 1624.11 4420.98 1519.07C4435.47 1512.4 4524.61 1449.77 4483.63 1509.78C4458.79 1546.16 4381.32 1606.54 4339.21 1621.19C4158.24 1684.14 4083.35 1531.18 4099.62 1373.48L4083.75 1369.52C4071.37 1395.01 4043.96 1427.67 4023.76 1449.54C3936.35 1544.17 3766.68 1709.11 3632.05 1609.3C3509.91 1518.76 3607.02 1269.71 3658.58 1156.15C3705.69 1052.38 3769.78 909.89 3906.31 995.06L3906.29 995.04Z" fill="white"/>
<path d="M2027.07 923.29C2053.15 917.44 2095.63 925.36 2113.68 945.18C2153.92 989.35 2089.68 1122.49 2081.21 1177.34C2181.98 1084.94 2346.29 930.54 2495.22 963.29C2586.59 983.39 2494.88 1111.72 2433.78 1105.62C2417.21 1103.96 2403.13 1090.88 2377.39 1089.03C2247.62 1079.71 2092.85 1260.2 2035.96 1364.06C1987.15 1453.16 1971.07 1546.33 1933.51 1637.75C1878.59 1643.23 1795.93 1620.64 1806.07 1550.49L1985.35 961.57C1991.76 943.1 2007.78 927.62 2027.07 923.29Z" fill="white"/>
<path d="M2826.73 667.43C2955.93 648.43 2945.33 795.04 2830.38 831.32C2678.86 879.15 2696.53 686.58 2826.73 667.43Z" fill="white"/>
<path d="M671.04 1685.25C706.13 1651.79 761.44 1663.47 806.68 1663.58C882.49 1666.96 958.8 1660.29 1032.96 1645.6C1189.03 1617.69 1324.84 1526.34 1425.62 1404.06C1512.84 1300.89 1571.26 1169.17 1562.69 1031.54C1557.98 933.26 1517.43 831.84 1427.08 786.35C1320.91 730.86 1180.86 758.15 1076.05 811.67C911.98 893.4 797.6 1044.69 709.92 1202.5C653.7 1307.42 601.24 1414.18 576.06 1531.24C556.24 1623.86 550.51 1719.86 552.11 1814.12C552.89 1929.79 555.05 2041.95 578.07 2154.93C585.76 2195.97 598.4 2236.92 606.79 2277.53C608.88 2292.5 615.45 2315.72 606.5 2318.99C590.72 2314.95 573.71 2288.29 557.82 2267.12C520.6 2212.68 492.19 2151.6 476.06 2088C440.73 1934.89 439.06 1770.34 450.88 1611.04C460.31 1494.57 480.97 1382.65 519.71 1272.68C543.56 1207.42 574.01 1144.37 606.55 1083.61C646.1 1013.45 688.14 942.5 741.58 881.49C854.61 752.62 1008.5 653.46 1180.41 631.29C1548.26 573.83 1850.15 854.17 1751.09 1231.48C1728.64 1319.3 1690.03 1403.21 1638.86 1477.82C1465.64 1722.74 1153.09 1885.43 864.73 1908.58C804.2 1910.73 721.23 1919.55 676.98 1874.29C633.79 1826.1 626.11 1733.87 670.95 1685.38L671.05 1685.28L671.04 1685.25Z" fill="white"/>
</g>
<defs>
<clipPath id="clip0_65_10">
<rect width="4494.31" height="2318.97" fill="white"/>
</clipPath>
</defs>
</svg>
