<svg width="1771" height="2319" viewBox="0 0 1771 2319" fill="none" xmlns="http://www.w3.org/2000/svg">
<g clip-path="url(#clip0_65_36)">
<path d="M240.47 1172.28C243.27 1211.3 251.32 1245.99 262.91 1285.86C272.48 1321.23 282.38 1354.85 299.52 1388.31C312.89 1415.75 331.26 1440.96 345.58 1467.48C356.3 1487.4 364.22 1508.51 366.58 1530.98C370.37 1568.7 361.94 1612.53 361.36 1651.85C359.78 1733.42 350.88 1791.41 271.47 1708.64C138.87 1569.77 55.0299 1387.72 18.2399 1199.82C-33.4901 893.06 24.8999 563.47 192.23 299.63C287.61 157.28 448.07 -25.6198 636.79 2.98018C667.65 8.17018 697.74 17.5502 727.42 27.7802C756.87 38.0802 786 49.1402 813.32 63.6102C928.25 122.65 978.25 267.93 948.87 389.54C940.49 423.08 927 457.18 902.37 481.9C856.57 527.38 793.95 503.26 759.64 455.52C720.37 402.47 699.36 328.38 624.69 316.5C526.36 303.16 445.61 413.97 397.51 486.79C304.12 637.27 245.6 826.26 238.41 1004.15C237.22 1032.46 237.87 1061.67 238.56 1090.4C238.58 1117.36 238.47 1147.6 240.46 1172.12V1172.27L240.47 1172.28Z" fill="#4F39F6"/>
<path d="M671.04 1685.25C706.13 1651.79 761.44 1663.47 806.68 1663.58C882.49 1666.96 958.8 1660.29 1032.96 1645.6C1189.03 1617.69 1324.84 1526.34 1425.62 1404.06C1512.84 1300.89 1571.26 1169.17 1562.69 1031.54C1557.98 933.26 1517.43 831.84 1427.08 786.35C1320.91 730.86 1180.86 758.15 1076.05 811.67C911.98 893.4 797.6 1044.69 709.92 1202.5C653.7 1307.42 601.24 1414.18 576.06 1531.24C556.24 1623.86 550.51 1719.86 552.11 1814.12C552.89 1929.79 555.05 2041.95 578.07 2154.93C585.76 2195.97 598.4 2236.92 606.79 2277.53C608.88 2292.5 615.45 2315.72 606.5 2318.99C590.72 2314.95 573.71 2288.29 557.82 2267.12C520.6 2212.68 492.19 2151.6 476.06 2088C440.73 1934.89 439.06 1770.34 450.88 1611.04C460.31 1494.57 480.97 1382.65 519.71 1272.68C543.56 1207.42 574.01 1144.37 606.55 1083.61C646.1 1013.45 688.14 942.5 741.58 881.49C854.61 752.62 1008.5 653.46 1180.41 631.29C1548.26 573.83 1850.15 854.17 1751.09 1231.48C1728.64 1319.3 1690.03 1403.21 1638.86 1477.82C1465.64 1722.74 1153.09 1885.43 864.73 1908.58C804.2 1910.73 721.23 1919.55 676.98 1874.29C633.79 1826.1 626.11 1733.87 670.95 1685.38L671.05 1685.28L671.04 1685.25Z" fill="#4F39F6"/>
</g>
<defs>
<clipPath id="clip0_65_36">
<rect width="1770.13" height="2318.97" fill="white"/>
</clipPath>
</defs>
</svg>
